<svg width="158" height="45" viewBox="0 0 158 45" fill="none" xmlns="http://www.w3.org/2000/svg">
<g clip-path="url(#clip0_1175_4120)">
<path d="M55.3298 19.5209C55.0098 19.6009 54.5498 19.7009 54.2298 19.8009C54.0298 19.8809 53.8098 19.9409 53.6498 19.9409C53.3298 19.9409 53.0298 19.8609 52.7698 19.5809C51.9098 18.6209 51.5498 18.1009 51.5498 17.5609C51.5498 17.4609 51.6298 17.3609 51.7498 17.3609C51.8498 17.3609 52.0698 17.3809 52.4098 17.4409C52.7698 17.5009 53.1698 17.5209 53.5098 17.5209C53.8298 17.5209 54.3898 17.5009 55.2298 17.4009C58.1498 17.0009 61.7898 16.4409 65.7498 15.7209C66.3298 15.6209 67.0298 15.4009 67.5098 15.1809C67.8298 15.0209 68.0898 14.9209 68.4298 14.9209C68.8498 14.9209 69.2298 15.0409 69.7098 15.5809C70.0698 15.9609 70.2098 16.3609 70.2098 16.6209C70.2098 17.0409 70.0098 17.2009 69.4498 17.2409C68.3298 17.3609 67.4498 17.6209 66.8698 17.9209C64.5298 19.0409 62.0898 22.3209 62.0898 25.8809C62.0898 28.6209 63.7298 29.9209 65.4498 30.7209C65.7898 30.8809 65.9098 30.9009 66.0698 31.0409C66.5898 31.4409 66.8698 32.0209 66.8698 32.6609C66.8698 33.3409 66.4498 33.7609 65.7498 33.7609C64.8698 33.7609 63.5498 33.1409 62.3498 31.9409C60.7098 30.3209 60.0098 28.4609 60.0098 26.3809C60.0098 23.0809 61.4498 20.4609 64.1498 17.8209C59.8698 18.6009 57.5098 19.1009 55.3298 19.6209V19.5209Z" fill="#507F56"/>
<path d="M90.1697 24.2806C93.0297 24.2806 95.0897 25.9606 95.0897 28.1806C95.0897 30.4006 93.7697 31.8006 91.1897 33.0006C89.4697 33.7806 86.8297 34.2006 85.5697 34.2006C85.1097 34.2006 84.8097 34.0406 84.8097 33.8806C84.8097 33.7006 84.9897 33.5006 85.4297 33.3806C86.7097 33.0606 88.5697 32.3406 89.7897 31.5006C91.1697 30.5406 92.2297 29.2606 92.2297 27.7006C92.2297 26.5006 91.5097 25.7006 89.9097 25.7006C88.2097 25.7006 86.2497 26.6606 84.6297 27.7606C83.8697 28.2606 83.5897 28.4606 83.3297 28.8206C83.1297 29.1406 82.8697 29.2006 82.6097 29.2006C82.0097 29.2006 81.2497 28.6006 80.7097 27.8806C80.5297 27.6406 80.4697 27.4206 80.4697 27.1806C80.4697 27.0806 80.4897 26.9206 80.5697 26.5806C80.5697 25.0806 80.7697 23.5806 81.0297 22.1006C81.3097 20.7006 81.8697 19.2606 82.5297 18.2206C82.7097 17.9006 82.8697 17.8006 82.9897 17.8006C83.1497 17.8006 83.4897 18.3206 83.4897 18.9806C83.4897 19.2206 83.4097 19.5606 83.2497 20.2006C82.8497 21.7406 82.5897 23.5806 82.5897 26.2806C86.2097 24.6606 87.8097 24.2606 90.1097 24.2606L90.1697 24.2806ZM85.5897 15.8606C85.5897 15.8606 85.6897 15.7206 85.6897 15.6606C85.6897 15.6006 85.6697 15.5606 85.5297 15.3406C85.1897 14.8006 84.5097 14.0406 84.1297 13.7206C83.9297 13.5606 83.8897 13.4606 83.8897 13.3606C83.8897 13.2006 84.1497 13.1006 84.6697 13.1006C85.4497 13.1006 87.0297 13.7206 87.8697 14.5006C88.5297 15.1206 88.8297 15.7006 88.8297 16.3406C88.8297 16.9806 88.3697 17.3206 87.9697 17.3206C87.6297 17.3206 87.3697 17.3006 87.1897 17.2406C86.8697 17.1606 86.5697 17.1606 86.1497 17.1606C85.6497 17.1606 85.0097 17.2206 84.5097 17.2606C84.3297 17.2606 84.2297 17.2006 84.2297 17.1006C84.2297 17.0006 84.3097 16.9206 84.4697 16.7806C84.8297 16.5006 85.2297 16.1806 85.5897 15.8206V15.8606Z" fill="#507F56"/>
<path d="M105.93 27.3605C106.17 27.3605 106.55 27.5205 107.43 28.2005C107.95 28.6005 108.15 28.8605 108.15 29.1405C108.15 29.3805 108.07 29.5405 107.83 29.7605C107.63 29.9605 107.47 30.1205 107.33 30.2805C106.47 31.2405 105.27 32.2605 104.13 32.9005C103.99 32.9805 103.87 33.0005 103.77 33.0005C103.61 33.0005 103.51 32.9205 103.51 32.7605C103.51 32.6604 103.53 32.5205 103.65 32.4005C104.49 31.3005 105.01 30.3805 105.39 29.4005C105.59 28.8805 105.67 28.6405 105.67 28.3005C105.67 28.1005 105.65 27.9005 105.61 27.6005C105.61 27.4405 105.71 27.3405 105.89 27.3405L105.93 27.3605ZM108.67 27.8005C108.67 27.0405 108.67 26.5605 108.59 26.0405C107.87 26.3205 107.13 26.5805 106.41 26.8405C105.99 27.0405 105.81 27.1205 105.63 27.1205C105.39 27.1205 105.27 26.9605 105.09 26.6005C104.73 25.8205 104.65 25.3605 104.65 25.1005C104.65 24.8405 104.81 24.7405 105.37 24.5605C105.87 24.4405 106.05 24.3205 106.29 24.0605C106.87 23.3605 107.41 22.7405 107.87 22.1005C107.27 21.7805 106.77 21.5805 106.19 21.4005C105.87 21.3005 105.59 21.2605 105.39 21.2405C105.01 21.1805 104.87 20.9805 104.87 20.2005C104.87 19.2405 105.03 19.1605 105.41 19.0605C105.65 19.0005 105.83 18.9005 106.01 18.6205C106.89 17.3205 107.57 16.0405 107.99 15.0005C108.19 14.4805 108.31 13.9005 108.31 13.5005C108.31 13.3405 108.31 13.1605 108.29 12.8805C108.29 12.6205 108.39 12.4805 108.71 12.4805C109.03 12.4805 109.57 12.6605 110.71 13.4605C110.99 13.6605 111.13 13.9005 111.13 14.1205C111.13 14.3005 111.05 14.4805 110.89 14.7005C110.77 14.8605 110.69 14.9805 110.37 15.4205C109.39 16.8405 108.31 18.3005 107.23 19.6605C107.89 20.0205 108.43 20.3405 108.95 20.7205C109.49 20.0005 109.99 19.2805 110.45 18.5805C110.95 17.8605 111.17 17.3005 111.25 16.8205C111.27 16.6205 111.27 16.3005 111.27 16.1005C111.27 15.8205 111.41 15.7005 111.61 15.7005C111.81 15.7005 112.59 15.9805 113.19 16.3805C113.71 16.7205 114.05 17.0605 114.05 17.3605C114.05 17.6205 113.89 17.8205 113.69 18.0205C113.51 18.1805 113.23 18.5205 112.85 18.9605C111.21 20.9405 109.89 22.4005 107.85 24.4005C109.13 24.1605 110.37 23.9405 111.47 23.7005C111.23 23.0005 111.07 22.3005 111.07 22.0805C111.07 21.8605 111.15 21.7605 111.31 21.7605C111.41 21.7605 111.55 21.7805 111.69 21.9005C112.47 22.3405 113.13 22.8605 113.65 23.6605C113.91 24.0605 114.07 24.5805 114.07 24.9005C114.07 25.5805 113.57 25.9605 113.09 25.9605C112.65 25.9605 112.29 25.6005 112.07 25.1605L111.87 24.7205C110.95 25.1005 110.51 25.3005 110.11 25.4405C110.69 25.7605 110.83 25.9405 110.83 26.2405C110.77 26.7405 110.75 27.2005 110.75 27.7405L110.65 34.0005C110.63 34.9004 110.29 35.3004 109.69 35.3004C109.09 35.3004 108.59 34.6005 108.33 33.3205C108.33 33.0405 108.39 32.7805 108.45 32.5205C108.55 32.1205 108.63 31.6405 108.65 30.3405V27.7605L108.67 27.8005ZM112.49 29.7205C112.03 28.7405 111.69 27.7005 111.45 26.7805C111.43 26.6805 111.43 26.6005 111.43 26.5405C111.43 26.3605 111.49 26.2805 111.63 26.2805C111.73 26.2805 111.87 26.3405 112.03 26.4205C112.63 26.7405 113.35 27.3405 113.79 27.8805C114.19 28.3805 114.41 28.8405 114.41 29.2805C114.41 29.9805 113.97 30.4205 113.39 30.4205C112.97 30.4205 112.69 30.1405 112.47 29.7205H112.49ZM118.93 20.1605C117.61 20.3205 116.33 20.4805 115.19 20.6605C114.93 20.6605 114.75 20.5805 114.53 20.3805C113.73 19.6005 113.59 19.3605 113.59 19.1805C113.59 19.0205 113.65 18.9805 114.09 18.9205C115.71 18.7405 117.37 18.5605 118.93 18.3805V17.2205C118.93 14.7805 118.75 14.1805 118.53 13.6605C118.47 13.4805 118.45 13.3805 118.45 13.2805C118.45 13.1005 118.55 13.0005 118.81 13.0005C119.25 13.0005 120.37 13.2005 121.31 13.7605C121.63 13.9405 121.73 14.1205 121.73 14.3805C121.73 14.5405 121.65 14.7405 121.55 15.0005C121.37 15.4605 121.27 15.9205 121.21 17.3205V18.1805L123.39 17.9805C124.05 17.9205 124.49 17.8005 124.93 17.5805C126.37 17.9005 127.01 18.4205 127.01 18.9005C127.01 19.3605 126.65 19.6005 125.95 19.6205C124.31 19.7005 122.69 19.8005 121.13 19.9605L121.05 22.5405L122.85 22.3405C123.25 22.2805 123.63 22.1605 123.97 21.9805C125.11 22.2405 126.03 22.7805 126.03 23.3805C126.03 23.8405 125.67 24.0405 124.89 24.0605C121.85 24.1805 118.59 24.5205 115.71 24.9805C115.45 24.9805 115.33 24.9605 115.17 24.7805C114.45 23.9005 114.31 23.6805 114.31 23.5005C114.31 23.3405 114.41 23.3005 114.57 23.2605C115.93 23.1405 117.45 22.9805 118.93 22.8205V20.2205V20.1605ZM124.39 31.9205C124.75 32.1605 124.99 32.4405 124.99 32.7605C124.99 33.2005 124.59 33.3605 123.83 33.3605C121.93 33.3605 119.99 33.5005 117.93 33.7205C117.87 34.4005 117.57 34.6805 117.13 34.6805C116.59 34.6805 116.11 34.2205 115.81 33.0405C115.83 32.9605 115.83 32.8605 115.83 32.7005C115.83 32.2805 115.77 31.5805 115.59 30.3605C115.33 28.4605 115.17 27.8805 114.91 27.4005C114.81 27.2005 114.75 27.0405 114.75 26.9005C114.75 26.7205 114.87 26.6205 115.15 26.6205C115.35 26.6205 116.09 26.7805 116.79 27.1205C119.11 26.8005 120.71 26.6605 122.09 26.5205C122.61 26.4605 123.03 26.2805 123.45 26.0605C124.05 26.2605 124.57 26.5205 125.17 27.0205C125.77 27.5205 126.09 27.9005 126.09 28.1605C126.09 28.3605 125.99 28.5205 125.81 28.7005C125.57 28.9405 125.45 29.2005 125.35 29.4805L124.43 31.9205H124.39ZM117.83 32.0805C119.33 31.9205 120.83 31.8005 122.33 31.7205C122.59 30.4205 122.83 29.1405 122.93 28.1005C121.05 28.2405 119.49 28.3805 117.53 28.6405L117.85 32.0805H117.83Z" fill="#507F56"/>
<path d="M137.35 17.6807C137.11 17.7407 136.69 17.7807 136.49 17.7807C136.21 17.7807 136.05 17.7007 135.79 17.4407C135.37 17.0207 135.01 16.5807 134.77 16.0207C134.77 15.8207 134.91 15.7807 135.03 15.7807C135.55 15.8007 135.97 15.8407 136.43 15.8407C136.89 15.8407 137.89 15.7607 139.19 15.5207C140.47 15.2807 141.79 14.9007 142.29 14.6607C142.73 14.4207 142.87 14.3207 143.07 14.3207C143.31 14.3207 143.49 14.4007 143.99 14.8607C144.35 15.2607 144.65 15.6407 144.65 15.8407C144.65 16.1207 144.55 16.2207 143.97 16.5607C142.39 17.3407 140.87 18.9207 139.97 20.4407C138.79 22.3407 138.13 24.6207 138.13 27.5207C138.13 30.5607 139.33 32.2807 141.19 32.2807C143.47 32.2807 146.71 28.1807 148.49 22.9207C148.89 21.7607 149.25 20.0807 149.25 19.2807C149.25 18.6607 149.23 18.3207 149.17 18.0407C149.15 17.7607 149.09 17.4407 149.09 16.9807C149.09 16.6207 149.51 16.3007 150.31 16.3007C151.03 16.3007 151.33 16.5607 151.33 17.0807C151.33 18.1407 151.39 19.0407 151.51 19.5007C151.77 20.5407 152.71 22.4607 154.17 24.3607C154.59 24.9007 154.75 25.1607 154.75 25.6407C154.75 26.3407 154.31 26.9407 153.55 26.9407C153.05 26.9407 152.71 26.6607 152.31 26.1007C151.61 25.1607 150.91 23.7407 150.35 21.8007C150.15 23.2607 149.81 24.5807 149.57 25.3407C147.85 31.0007 145.13 33.9407 141.59 33.9407C138.31 33.9407 136.15 31.3207 136.15 26.9207C136.15 22.9607 137.21 20.1807 139.51 17.2207C138.65 17.4007 137.67 17.6207 137.37 17.6607L137.35 17.6807ZM154.07 14.8807C154.91 15.4807 155.23 16.1207 155.23 16.5407C155.23 17.0807 154.89 17.4007 154.39 17.4007C153.93 17.4007 153.67 17.1207 153.11 16.4607C152.51 15.7407 151.87 15.0007 151.19 14.3007C151.03 14.1407 150.99 14.0607 150.99 13.9807C150.99 13.8207 151.15 13.7807 151.39 13.7807C152.01 13.7807 153.13 14.1607 154.07 14.8807ZM156.47 12.5607C157.33 13.1407 157.69 13.6207 157.69 14.2807C157.69 14.8207 157.37 15.1607 156.89 15.1607C156.43 15.1607 156.13 14.9007 155.59 14.2207C155.01 13.5207 154.35 12.8007 153.79 12.2807C153.61 12.1207 153.55 12.0407 153.55 11.9607C153.55 11.7807 153.71 11.7207 153.91 11.7207C154.53 11.7207 155.61 11.9807 156.45 12.5607H156.47Z" fill="#507F56"/>
<path d="M22.9101 40.2613C23.1501 40.2613 23.3501 40.4613 23.3501 40.7013V44.0613C23.3501 44.5613 23.7701 44.9813 24.2701 44.9813H24.8301C25.3501 44.9813 25.7701 44.5613 25.7501 44.0413C25.6101 36.2013 23.6901 34.8613 21.5501 34.8613C19.4101 34.8613 17.4901 36.2013 17.3501 44.0413C17.3501 44.5613 17.7501 44.9813 18.2701 44.9813H18.8301C19.3301 44.9813 19.7501 44.5613 19.7501 44.0613V40.7013C19.7501 40.4613 19.9501 40.2613 20.1901 40.2613C20.4301 40.2613 20.6301 40.4613 20.6301 40.7013V44.0613C20.6301 44.5613 21.0501 44.9813 21.5501 44.9813C22.0501 44.9813 22.4701 44.5613 22.4701 44.0613V40.7013C22.4701 40.4613 22.6701 40.2613 22.9101 40.2613Z" fill="#D2B669"/>
<path d="M14.1701 18.0613C13.2501 17.6813 12.3501 17.1613 11.6101 16.4213C11.2101 16.0213 10.9101 15.5413 10.6901 15.0413C10.4701 14.5413 10.3901 14.0013 10.3901 13.4813C10.3901 12.9413 10.4901 12.4213 10.6901 11.9213C10.8901 11.4213 11.1901 10.9613 11.6101 10.5413C12.0301 10.1213 12.4901 9.84129 12.9901 9.62129C13.4901 9.40129 14.0301 9.32129 14.5501 9.32129C15.0701 9.32129 15.6101 9.42129 16.1101 9.62129C16.6101 9.82129 17.0701 10.1213 17.4901 10.5413C18.2301 11.2813 18.7501 12.1813 19.1301 13.1013" stroke="white" stroke-width="4.32" stroke-linecap="round" stroke-linejoin="round"/>
<path d="M19.1301 27.3614C18.7501 28.2814 18.2301 29.1814 17.4901 29.9214C17.0901 30.3214 16.6101 30.6214 16.1101 30.8414C15.6101 31.0614 15.0701 31.1414 14.5501 31.1414C14.0301 31.1414 13.4901 31.0414 12.9901 30.8414C12.4901 30.6414 12.0301 30.3414 11.6101 29.9214C11.1901 29.5014 10.9101 29.0414 10.6901 28.5414C10.4701 28.0414 10.3901 27.5014 10.3901 26.9814C10.3901 26.4414 10.4901 25.9214 10.6901 25.4214C10.8901 24.9214 11.1901 24.4614 11.6101 24.0414C12.3501 23.3014 13.2501 22.7814 14.1701 22.4014" stroke="white" stroke-width="4.32" stroke-linecap="round" stroke-linejoin="round"/>
<path d="M28.4302 22.4014C29.3502 22.7814 30.2502 23.3014 30.9902 24.0414C31.3902 24.4414 31.6902 24.9214 31.9102 25.4214C32.1302 25.9214 32.2102 26.4614 32.2102 26.9814C32.2102 27.5214 32.1102 28.0414 31.9102 28.5414C31.7102 29.0414 31.4102 29.5014 30.9902 29.9214C30.5702 30.3414 30.1102 30.6214 29.6102 30.8414C29.1102 31.0614 28.5702 31.1414 28.0502 31.1414C27.5302 31.1414 26.9902 31.0414 26.4902 30.8414C25.9902 30.6414 25.5302 30.3414 25.1102 29.9214C24.3702 29.1814 23.8502 28.2814 23.4702 27.3614" stroke="white" stroke-width="4.32" stroke-linecap="round" stroke-linejoin="round"/>
<path d="M23.4702 13.1013C23.8502 12.1813 24.3702 11.2813 25.1102 10.5413C25.5102 10.1413 25.9902 9.84129 26.4902 9.62129C26.9902 9.40129 27.5302 9.32129 28.0502 9.32129C28.5702 9.32129 29.1102 9.42129 29.6102 9.62129C30.1102 9.82129 30.5702 10.1213 30.9902 10.5413C31.4102 10.9613 31.6902 11.4213 31.9102 11.9213C32.1302 12.4213 32.2102 12.9613 32.2102 13.4813C32.2102 14.0213 32.1102 14.5413 31.9102 15.0413C31.7102 15.5413 31.4102 16.0013 30.9902 16.4213C30.2502 17.1613 29.3502 17.6813 28.4302 18.0613" stroke="white" stroke-width="4.32" stroke-linecap="round" stroke-linejoin="round"/>
<path d="M14.1701 18.0613C13.2501 17.6813 12.3501 17.1613 11.6101 16.4213C11.2101 16.0213 10.9101 15.5413 10.6901 15.0413C10.4701 14.5413 10.3901 14.0013 10.3901 13.4813C10.3901 12.9413 10.4901 12.4213 10.6901 11.9213C10.8901 11.4213 11.1901 10.9613 11.6101 10.5413C12.0301 10.1213 12.4901 9.84129 12.9901 9.62129C13.4901 9.40129 14.0301 9.32129 14.5501 9.32129C15.0701 9.32129 15.6101 9.42129 16.1101 9.62129C16.6101 9.82129 17.0701 10.1213 17.4901 10.5413C18.2301 11.2813 18.7501 12.1813 19.1301 13.1013" stroke="#507F56" stroke-width="2.16" stroke-linecap="round" stroke-linejoin="round"/>
<path d="M19.1301 27.3614C18.7501 28.2814 18.2301 29.1814 17.4901 29.9214C17.0901 30.3214 16.6101 30.6214 16.1101 30.8414C15.6101 31.0614 15.0701 31.1414 14.5501 31.1414C14.0301 31.1414 13.4901 31.0414 12.9901 30.8414C12.4901 30.6414 12.0301 30.3414 11.6101 29.9214C11.1901 29.5014 10.9101 29.0414 10.6901 28.5414C10.4701 28.0414 10.3901 27.5014 10.3901 26.9814C10.3901 26.4414 10.4901 25.9214 10.6901 25.4214C10.8901 24.9214 11.1901 24.4614 11.6101 24.0414C12.3501 23.3014 13.2501 22.7814 14.1701 22.4014" stroke="#507F56" stroke-width="2.16" stroke-linecap="round" stroke-linejoin="round"/>
<path d="M28.4302 22.4014C29.3502 22.7814 30.2502 23.3014 30.9902 24.0414C31.3902 24.4414 31.6902 24.9214 31.9102 25.4214C32.1302 25.9214 32.2102 26.4614 32.2102 26.9814C32.2102 27.5214 32.1102 28.0414 31.9102 28.5414C31.7102 29.0414 31.4102 29.5014 30.9902 29.9214C30.5702 30.3414 30.1102 30.6214 29.6102 30.8414C29.1102 31.0614 28.5702 31.1414 28.0502 31.1414C27.5302 31.1414 26.9902 31.0414 26.4902 30.8414C25.9902 30.6414 25.5302 30.3414 25.1102 29.9214C24.3702 29.1814 23.8502 28.2814 23.4702 27.3614" stroke="#507F56" stroke-width="2.16" stroke-linecap="round" stroke-linejoin="round"/>
<path d="M23.4702 13.1013C23.8502 12.1813 24.3702 11.2813 25.1102 10.5413C25.5102 10.1413 25.9902 9.84129 26.4902 9.62129C26.9902 9.40129 27.5302 9.32129 28.0502 9.32129C28.5702 9.32129 29.1102 9.42129 29.6102 9.62129C30.1102 9.82129 30.5702 10.1213 30.9902 10.5413C31.4102 10.9613 31.6902 11.4213 31.9102 11.9213C32.1302 12.4213 32.2102 12.9613 32.2102 13.4813C32.2102 14.0213 32.1102 14.5413 31.9102 15.0413C31.7102 15.5413 31.4102 16.0013 30.9902 16.4213C30.2502 17.1613 29.3502 17.6813 28.4302 18.0613" stroke="#507F56" stroke-width="2.16" stroke-linecap="round" stroke-linejoin="round"/>
<path d="M17.77 6.40113C17.77 3.68113 19.45 2.16113 21.29 2.16113C23.13 2.16113 24.81 3.68113 24.81 6.40113C24.81 10.0011 21.29 12.4411 21.29 20.5411C21.29 11.8611 17.77 10.0211 17.77 6.40113Z" stroke="white" stroke-width="4.32" stroke-linecap="round" stroke-linejoin="round"/>
<path d="M7.17017 24.0615C4.45017 24.0615 2.93018 22.3815 2.93018 20.5415C2.93018 18.7015 4.45017 17.0215 7.17017 17.0215C10.7702 17.0215 13.2102 20.5415 21.3102 20.5415C12.6302 20.5415 10.7902 24.0615 7.17017 24.0615Z" stroke="white" stroke-width="4.32" stroke-linecap="round" stroke-linejoin="round"/>
<path d="M35.43 17.001C38.15 17.001 39.67 18.681 39.67 20.521C39.67 22.361 38.15 24.041 35.43 24.041C31.83 24.041 29.39 20.521 21.29 20.521C29.97 20.521 31.81 17.001 35.43 17.001Z" stroke="white" stroke-width="4.32" stroke-linecap="round" stroke-linejoin="round"/>
<path d="M17.77 6.40113C17.77 3.68113 19.45 2.16113 21.29 2.16113C23.13 2.16113 24.81 3.68113 24.81 6.40113C24.81 10.0011 21.29 12.4411 21.29 20.5411C21.29 11.8611 17.77 10.0211 17.77 6.40113Z" stroke="#D2B669" stroke-width="2.6" stroke-linecap="round" stroke-linejoin="round"/>
<path d="M7.17017 24.0615C4.45017 24.0615 2.93018 22.3815 2.93018 20.5415C2.93018 18.7015 4.45017 17.0215 7.17017 17.0215C10.7702 17.0215 13.2102 20.5415 21.3102 20.5415C12.6302 20.5415 10.7902 24.0615 7.17017 24.0615Z" stroke="#D2B669" stroke-width="2.6" stroke-linecap="round" stroke-linejoin="round"/>
<path d="M35.43 17.001C38.15 17.001 39.67 18.681 39.67 20.521C39.67 22.361 38.15 24.041 35.43 24.041C31.83 24.041 29.39 20.521 21.29 20.521C29.97 20.521 31.81 17.001 35.43 17.001Z" stroke="#D2B669" stroke-width="2.6" stroke-linecap="round" stroke-linejoin="round"/>
<path d="M17.77 6.40113C17.77 3.68113 19.45 2.16113 21.29 2.16113C23.13 2.16113 24.81 3.68113 24.81 6.40113C24.81 10.0011 21.29 12.4411 21.29 20.5411C21.29 11.8611 17.77 10.0211 17.77 6.40113Z" stroke="#D2B669" stroke-width="2.6" stroke-linecap="round" stroke-linejoin="round"/>
<path d="M7.17017 24.0615C4.45017 24.0615 2.93018 22.3815 2.93018 20.5415C2.93018 18.7015 4.45017 17.0215 7.17017 17.0215C10.7702 17.0215 13.2102 20.5415 21.3102 20.5415C12.6302 20.5415 10.7902 24.0615 7.17017 24.0615Z" stroke="#D2B669" stroke-width="2.6" stroke-linecap="round" stroke-linejoin="round"/>
<path d="M35.43 17.001C38.15 17.001 39.67 18.681 39.67 20.521C39.67 22.361 38.15 24.041 35.43 24.041C31.83 24.041 29.39 20.521 21.29 20.521C29.97 20.521 31.81 17.001 35.43 17.001Z" stroke="#D2B669" stroke-width="2.6" stroke-linecap="round" stroke-linejoin="round"/>
<path d="M21.5502 25.8007C24.6209 25.8007 27.1102 23.3114 27.1102 20.2407C27.1102 17.17 24.6209 14.6807 21.5502 14.6807C18.4795 14.6807 15.9902 17.17 15.9902 20.2407C15.9902 23.3114 18.4795 25.8007 21.5502 25.8007Z" fill="white"/>
<path d="M25.0311 15.96L23.3511 19.56" stroke="white" stroke-width="4.32" stroke-linecap="round" stroke-linejoin="round"/>
<path d="M27.7313 17.2197L26.0513 20.7997" stroke="white" stroke-width="4.32" stroke-linecap="round" stroke-linejoin="round"/>
<path d="M16.5501 19.6602L14.8701 23.2602" stroke="white" stroke-width="4.32" stroke-linecap="round" stroke-linejoin="round"/>
<path d="M19.2308 20.9199L17.5708 24.5199" stroke="white" stroke-width="4.32" stroke-linecap="round" stroke-linejoin="round"/>
<path d="M25.5702 23.9608L21.9902 22.3008" stroke="white" stroke-width="4.32" stroke-linecap="round" stroke-linejoin="round"/>
<path d="M24.31 26.6605L20.73 24.9805" stroke="white" stroke-width="4.32" stroke-linecap="round" stroke-linejoin="round"/>
<path d="M21.87 15.4808L18.27 13.8008" stroke="white" stroke-width="4.32" stroke-linecap="round" stroke-linejoin="round"/>
<path d="M20.6103 18.181L17.0103 16.501" stroke="white" stroke-width="4.32" stroke-linecap="round" stroke-linejoin="round"/>
<path d="M25.0311 15.96L23.3511 19.56" stroke="#507F56" stroke-width="2.16" stroke-linecap="round" stroke-linejoin="round"/>
<path d="M27.7313 17.2197L26.0513 20.7997" stroke="#507F56" stroke-width="2.16" stroke-linecap="round" stroke-linejoin="round"/>
<path d="M16.5501 19.6602L14.8701 23.2602" stroke="#507F56" stroke-width="2.16" stroke-linecap="round" stroke-linejoin="round"/>
<path d="M19.2308 20.9199L17.5708 24.5199" stroke="#507F56" stroke-width="2.16" stroke-linecap="round" stroke-linejoin="round"/>
<path d="M25.5702 23.9608L21.9902 22.3008" stroke="#507F56" stroke-width="2.16" stroke-linecap="round" stroke-linejoin="round"/>
<path d="M24.31 26.6605L20.73 24.9805" stroke="#507F56" stroke-width="2.16" stroke-linecap="round" stroke-linejoin="round"/>
<path d="M21.87 15.4808L18.27 13.8008" stroke="#507F56" stroke-width="2.16" stroke-linecap="round" stroke-linejoin="round"/>
<path d="M20.6103 18.181L17.0103 16.501" stroke="#507F56" stroke-width="2.16" stroke-linecap="round" stroke-linejoin="round"/>
<path d="M21.5503 33.8409C22.6438 33.8409 23.5303 32.9544 23.5303 31.8609C23.5303 30.7673 22.6438 29.8809 21.5503 29.8809C20.4568 29.8809 19.5703 30.7673 19.5703 31.8609C19.5703 32.9544 20.4568 33.8409 21.5503 33.8409Z" fill="#D2B669"/>
</g>
<defs>
<clipPath id="clip0_1175_4120">
<rect width="156.92" height="44.96" fill="white" transform="translate(0.77002)"/>
</clipPath>
</defs>
</svg>
