<svg width="63" height="19" viewBox="0 0 63 19" fill="none" xmlns="http://www.w3.org/2000/svg">
<path d="M9 0.64C6.86 0.64 4.7 1.48 3.14 2.9C1.24 4.62 0.24 6.88 0.24 9.4C0.24 14.22 4.18 18.16 9 18.16C13.84 18.16 17.76 14.24 17.76 9.4C17.76 7.22 16.96 5.14 15.5 3.54C13.8 1.66 11.52 0.64 9 0.64ZM9 1.3C10.98 1.3 12.98 2.06 14.42 3.38C16.18 4.98 17.1 7.06 17.1 9.4C17.1 13.88 13.48 17.5 9 17.5C4.52 17.5 0.9 13.86 0.9 9.4C0.9 7.38 1.64 5.46 2.98 3.98C4.56 2.24 6.66 1.3 9 1.3ZM31 0.64C28.86 0.64 26.7 1.48 25.14 2.9C23.24 4.62 22.24 6.88 22.24 9.4C22.24 14.22 26.18 18.16 31 18.16C35.84 18.16 39.76 14.24 39.76 9.4C39.76 7.22 38.96 5.14 37.5 3.54C35.8 1.66 33.52 0.64 31 0.64ZM31 1.3C32.98 1.3 34.98 2.06 36.42 3.38C38.18 4.98 39.1 7.06 39.1 9.4C39.1 13.88 35.48 17.5 31 17.5C26.52 17.5 22.9 13.86 22.9 9.4C22.9 7.38 23.64 5.46 24.98 3.98C26.56 2.24 28.66 1.3 31 1.3ZM53.78 3.3V1.3C54.48 1.08 54.68 0.959999 54.68 0.759999C54.68 0.479999 54.58 0.46 51.34 0.18C51.44 1.08 51.46 1.52 51.46 2.42V3.3H46.74C46.2 3.3 45.9 3.26 45.36 3.12L45.48 3.84C45.9 3.76 46.24 3.72 46.68 3.72H51.46V6.92H45.46C44.92 6.92 44.46 6.86 43.94 6.74L44.06 7.48C44.52 7.38 44.94 7.34 45.48 7.34H61.92C62.06 7.34 62.16 7.28 62.16 7.2C62.16 7.16 62.12 7.1 62.06 7.02C61.14 6.2 60.84 5.94 59.86 5.16C59.18 5.9 58.98 6.14 58.32 6.92H53.78V3.72H60.52C60.66 3.72 60.76 3.66 60.76 3.58C60.76 3.54 60.72 3.48 60.66 3.4C59.74 2.58 59.44 2.34 58.48 1.58C57.8 2.3 57.6 2.52 56.92 3.3H53.78ZM57.48 10.66H61.82C61.96 10.66 62.06 10.6 62.06 10.52C62.06 10.48 62.02 10.44 61.96 10.36C61.12 9.56 60.84 9.34 59.88 8.6C59.22 9.28 59 9.5 58.36 10.24H57.48V8.94C58.06 8.76 58.26 8.62 58.26 8.46C58.26 8.34 58.18 8.28 58.02 8.22C57.76 8.12 57.6 8.1 55.02 7.96C55.14 8.76 55.16 9.12 55.16 10.14V10.24H45.5C44.94 10.24 44.6 10.2 44.04 10.08L44.14 10.78C44.64 10.7 45 10.66 45.42 10.66H55.16V15.92C55.16 16.16 55.12 16.22 54.86 16.22C53.58 16.18 53.1 16.16 51.5 16.06V16.3C53.12 16.8 53.26 16.86 53.58 17.06C53.96 17.32 54.2 17.72 54.26 18.2C54.3 18.52 54.34 18.58 54.56 18.58C54.94 18.58 55.88 18.38 56.38 18.2C57.22 17.88 57.54 17.4 57.54 16.4C57.52 15.82 57.52 15.36 57.5 15.06C57.48 14.3 57.48 13.8 57.48 13.56V10.66ZM47.12 11.52C48.38 13 48.76 13.62 49.52 15.48C49.7 15.94 49.88 16.1 50.14 16.1C50.78 16.1 51.5 15.1 51.5 14.2C51.5 13.6 51.2 13.16 50.5 12.72C49.68 12.2 48.72 11.8 47.26 11.36L47.12 11.52Z" fill="black"/>
</svg>
